<svg height="18" viewBox="0 0 23 26" fill="none" xmlns="http://www.w3.org/2000/svg">
    <ellipse cx="11.3869" cy="7.28" rx="7.85714" ry="7.28" fill="white"/>
    <path d="M15.3838 20.8333C15.3838 18.2969 17.4913 16.2407 20.091 16.2407C20.1583 16.2407 20.2251 16.243 20.2917 16.2457C19.2103 14.1736 17.9656 12.48 17.9656 12.48C17.9656 12.48 15.0237 15.6082 10.9049 15.3504C6.78614 15.0926 5.02099 12.48 5.02099 12.48C5.02099 12.48 -1.4514 18.2207 0.902177 22.8133C3.25575 27.4059 16.2004 25.6837 16.2004 25.6837C16.2004 25.6837 17.1931 25.6112 18.3889 25.1151C16.6308 24.4493 15.3838 22.7839 15.3838 20.8333Z" fill="white"/>
    <path d="M21.7583 20.176H19.8726V18.304C19.8726 17.9595 19.5912 17.68 19.244 17.68C18.8969 17.68 18.6155 17.9594 18.6155 18.304V20.176H16.7298C16.3826 20.176 16.1012 20.4553 16.1012 20.8C16.1012 21.1447 16.3826 21.424 16.7298 21.424H18.6155V23.2959C18.6155 23.6406 18.8969 23.92 19.244 23.92C19.5912 23.92 19.8726 23.6406 19.8726 23.2959V21.424H21.7583C22.1055 21.424 22.3869 21.1447 22.3869 20.8C22.3869 20.4553 22.1055 20.176 21.7583 20.176Z" fill="white"/>
</svg>