<svg viewBox="0 0 30 29" fill="currentColor" xmlns="http://www.w3.org/2000/svg">
<path fill-rule="evenodd" clip-rule="evenodd" d="M29.1239 28.0761C28.9602 28.4074 28.6236 28.6179 28.2543 28.62H13.7787C5.91245 28.449 0.20373 22.4158 0.20373 14.2819C0.136908 9.20196 2.80657 4.47905 7.19159 1.91959C11.5766 -0.639864 16.9986 -0.639864 21.3836 1.91959C25.7686 4.47905 28.4383 9.20196 28.3715 14.2819C28.3715 17.5281 26.9925 20.2443 25.5867 22.5721L29.028 27.0543C29.2505 27.3493 29.2877 27.7447 29.1239 28.0761ZM13.7982 26.6659H26.2725L23.617 23.2194C23.368 22.8922 23.3505 22.444 23.5731 22.0983C24.9545 19.8999 26.4189 17.2839 26.4189 14.2819C26.481 9.9033 24.1824 5.83047 20.4035 3.62304C16.6245 1.41561 11.9507 1.41561 8.1717 3.62304C4.39274 5.83047 2.09419 9.9033 2.15625 14.2819C2.15625 21.3069 7.06199 26.517 13.7982 26.6659Z" fill="inherit" stroke="none"/>
<path d="M18.4087 11.6365C18.4318 12.1808 18.2952 12.72 18.0158 13.1875C17.5559 13.8021 17.035 14.3684 16.4611 14.8778C16.0296 15.2501 15.6684 15.6969 15.3945 16.1968C15.2737 16.4825 15.2011 16.7863 15.1797 17.0957C15.1336 17.5613 14.7348 17.9116 14.2675 17.8967C13.8002 17.8819 13.4243 17.5072 13.4078 17.0395C13.4078 17.0127 13.4078 16.9882 13.4078 16.9614C13.4394 16.5523 13.5273 16.1495 13.669 15.7645C13.874 15.2393 14.3084 14.6604 14.9991 13.9936L15.702 13.3145C15.8913 13.142 16.0556 12.9438 16.1902 12.7259C16.4089 12.4008 16.5277 12.0186 16.5319 11.6267C16.5405 11.1214 16.3672 10.6298 16.0437 10.2417C15.7264 9.85825 15.187 9.66528 14.4378 9.66528C13.5005 9.66528 12.8709 9.99503 12.517 10.6692C12.3682 10.9834 12.2725 11.3202 12.2338 11.6658C12.1768 12.1042 11.8067 12.4341 11.365 12.4401C11.101 12.4413 10.8496 12.3271 10.6767 12.1274C10.5133 11.9359 10.4411 11.6827 10.479 11.4337C10.5876 10.6122 10.9473 9.84433 11.509 9.23538C12.2412 8.45863 13.2467 8.06537 14.5134 8.06537C15.6849 8.06537 16.6368 8.40245 17.3446 9.0644C18.0525 9.72865 18.4402 10.6658 18.4087 11.6365Z" fill="inherit" stroke="none"/>
</svg>
