<svg width="166" height="38" viewBox="0 0 166 38" fill="none" xmlns="http://www.w3.org/2000/svg">
<path fill-rule="evenodd" clip-rule="evenodd" d="M129.154 10.6956C128.912 12.1131 129.84 13.1859 131.212 13.1475C131.939 13.1475 132.584 12.8411 133.23 12.6112C133.472 13.3391 133.795 13.7988 134.401 14.1436C134.966 14.4884 135.531 14.6417 136.257 14.68C138.235 14.7949 139.728 13.7988 140.939 13.1092C141.06 13.0326 141.141 12.956 141.181 12.8411C141.222 12.7261 141.625 12.5346 141.706 12.4579C141.787 12.4196 141.787 12.3047 141.827 12.2281C141.867 12.1515 142.352 11.8067 142.755 11.6534C142.836 11.6151 142.917 11.1554 142.675 11.0404C142.432 10.9255 142.069 11.232 141.787 11.3852C141.464 11.5768 141.141 11.6917 140.899 11.8067C140.334 12.0748 139.769 12.4196 139.082 12.6112C137.387 13.0709 135.894 12.4579 135.45 11.2703C135.934 10.8489 136.378 10.4274 136.822 10.006C137.872 9.04823 139.728 6.48138 139.365 5.98333C139.123 5.71515 138.639 5.90671 138.437 5.98333C138.356 6.02164 138.195 5.98333 138.114 6.02164C137.67 6.17489 137.186 6.558 136.742 6.78787C136.257 7.05605 135.813 7.28591 135.41 7.63072C134.32 8.55019 133.513 9.89108 133.149 11.232C132.1 11.4618 131.414 10.4658 131.575 9.46966C132.988 8.39694 134.158 7.13267 135.41 5.83008C136.177 5.02555 136.742 4.14439 137.307 3.26323C137.428 3.07167 137.428 2.95674 137.508 2.72687C137.589 2.497 137.791 2.22882 137.872 1.88402C138.073 1.34766 138.316 0.42819 137.912 0.0450772C137.67 -0.146479 136.378 0.313256 135.813 0.658058C135.248 1.00286 134.724 1.23273 134.239 1.50091C133.957 1.69246 133.674 2.03727 133.392 2.30544C133.109 2.57362 132.907 2.95674 132.665 3.26323C131.696 4.60412 131.01 5.90671 130.244 7.40085C130.001 7.8989 129.719 8.5885 129.517 9.16317C129.436 9.39304 129.436 9.43135 129.315 9.54628C129.154 9.77615 128.427 10.1976 128.145 10.3125C128.064 10.3508 127.015 10.6956 127.257 11.3086C127.499 11.5385 128.548 10.8872 129.154 10.6956ZM137.307 7.28589C137.347 7.28589 137.387 7.28589 137.387 7.3242C137.508 7.59238 137.266 7.93718 137.105 8.16705C136.661 8.78003 136.096 9.62288 135.531 9.89106C135.733 8.78003 136.499 7.93718 137.307 7.28589ZM135.531 1.76905C135.571 1.69243 135.652 1.65412 135.854 1.69243C136.015 1.73074 135.531 3.03332 135.248 3.60799C134.522 4.9872 133.351 6.09823 132.383 7.17095C133.15 5.37031 134.28 3.3015 135.531 1.76905Z" fill="#E2645A"/>
<path fill-rule="evenodd" clip-rule="evenodd" d="M164.711 20.465C164.146 20.3884 163.258 20.1202 162.734 20.0819C162.492 20.0436 161.16 19.852 160.393 20.0053C160.191 20.0436 159.989 20.0436 159.787 20.0053C160.837 19.7371 162.007 19.6222 163.218 19.9287C163.178 19.9287 163.662 19.967 164.106 20.0053C164.066 20.0053 164.146 20.0053 164.146 20.0053C164.671 20.1202 164.994 20.0436 165.478 19.967C165.115 19.6988 164.308 19.852 164.146 19.3923C164.348 19.2007 164.833 19.3923 165.115 19.3923C164.994 19.239 164.752 19.239 164.631 19.1241C164.752 19.0858 164.873 19.2007 164.954 19.1241C164.792 19.0475 164.913 19.0092 165.034 18.9709C164.711 18.8942 164.227 18.8942 164.268 18.5494C164.59 18.5878 165.196 18.6644 165.236 18.6644C165.277 18.6261 165.034 18.5494 165.034 18.4728C164.59 18.3962 163.985 18.1663 163.541 17.9748C163.581 17.8598 163.46 17.7832 163.299 17.7449C163.985 17.8215 164.59 17.9748 165.236 18.0131C165.115 17.9748 165.277 17.9365 165.277 17.9365C165.236 17.9365 165.155 17.8982 165.115 17.8982C165.155 17.8982 165.155 17.8982 165.196 17.8982C165.196 17.8982 165.115 17.8982 165.034 17.8598C164.994 17.8598 164.954 17.8215 164.913 17.8215C164.631 17.7449 164.146 17.5917 163.864 17.4001C164.389 17.4384 164.873 17.4767 165.357 17.515C164.308 17.0936 162.169 17.1319 161.039 17.5533C160.312 17.8598 159.021 18.2046 158.213 18.6261C158.375 18.2046 158.657 17.63 158.577 17.1702C158.496 17.2852 158.496 17.515 158.375 17.5533C158.335 17.515 158.456 17.3235 158.294 17.4384C158.375 17.0936 158.657 16.7488 158.617 16.4423C158.456 16.3657 158.456 16.2125 158.213 16.1741C158.173 16.1741 158.173 16.2125 158.092 16.2508C158.133 16.1741 158.254 16.1358 158.173 16.0592C157.891 16.0209 157.729 15.906 157.406 15.9826C157.447 16.1358 157.527 16.2508 157.406 16.3657C156.922 16.3657 156.841 15.9443 156.639 15.7527C156.397 15.7144 156.397 15.906 156.236 15.9443C156.195 15.9826 156.236 16.2891 156.155 16.4806C155.994 16.9021 155.832 17.4384 155.59 17.8598C155.429 18.128 155.227 18.5494 155.065 18.7793C154.702 19.3157 154.581 19.9287 154.218 20.3884C154.258 20.5799 154.056 20.6183 153.976 20.7715C153.935 20.8481 153.935 21.0014 153.854 21.1163C153.693 21.4228 153.411 21.7293 153.209 22.0741C152.563 22.9936 151.877 23.9513 151.271 24.7942C150.868 25.3689 150.464 25.9052 150.061 26.4416C149.899 26.6714 149.697 26.8247 149.617 27.0546C149.576 27.1695 149.657 27.3227 149.617 27.3994C149.576 27.5909 149.374 27.7442 149.415 27.974C149.496 28.0123 149.657 28.0123 149.738 28.089C149.617 28.4338 149.294 28.587 149.374 28.9701C149.576 29.0467 149.738 28.8935 149.859 29.0084C150.02 28.8552 150.182 28.6253 150.343 28.4338C150.505 28.2805 150.706 27.974 150.949 28.089C150.827 28.4338 150.424 28.587 150.585 28.9701C150.787 29.0851 150.908 28.8935 151.07 29.0084C151.594 28.4721 151.998 27.8591 152.603 27.4377C153.209 26.7098 153.774 25.9435 154.258 25.139C154.621 24.7559 154.944 24.3728 155.267 23.9896C155.59 23.6065 155.832 23.1468 156.155 22.7254C156.316 22.5338 156.639 22.4189 156.882 22.2656C157.608 21.7293 158.173 21.2695 159.061 20.9247C159.989 20.5799 160.958 20.3118 161.927 20.3118C162.492 20.3884 163.137 20.3501 163.581 20.5799C163.581 20.5799 163.622 20.6183 163.662 20.6183C164.469 20.6949 164.994 20.8098 165.68 20.6566C165.559 20.5033 165.236 20.5416 164.994 20.5033C164.711 20.5033 164.792 20.465 164.711 20.465ZM151.675 25.6371C151.594 24.9858 152.079 24.5643 152.361 24.1429C152.402 24.1429 152.926 23.4533 153.209 23.3384C152.684 24.0663 152.119 24.8325 151.675 25.6371ZM155.025 20.8865C154.702 21.4228 154.339 21.9209 153.855 22.3806C153.814 22.0358 154.298 21.6527 154.46 21.2696C155.146 20.7332 155.429 19.8137 155.913 19.0858C155.953 19.0475 155.873 18.8176 155.873 18.7793C156.074 18.5112 156.236 18.128 156.438 17.8599C156.478 17.8599 156.478 17.8599 156.518 17.8982C156.518 18.0897 156.478 18.3196 156.438 18.3579C156.397 18.3962 156.438 18.8943 156.317 19.1241C156.034 19.7754 155.429 20.4267 155.025 20.8865Z" fill="#E2645A"/>
<path fill-rule="evenodd" clip-rule="evenodd" d="M150.464 19.2007C150.908 18.1663 151.594 17.4 152.079 16.4423C152.2 16.4423 152.24 16.3656 152.321 16.3273C151.998 15.9059 151.675 16.0591 151.15 16.1741C150.989 16.4039 150.787 16.5955 150.626 16.8254C150.747 16.5955 150.868 16.3656 150.989 16.1358C150.747 16.0975 150.747 16.289 150.585 16.2507C150.424 16.5189 150.141 16.7104 150.02 17.0552C149.495 17.3617 149.213 18.3195 148.729 18.7026C148.971 18.3195 149.253 17.8981 149.495 17.4767C149.818 16.9786 150.262 16.4423 150.343 15.8676C150.182 15.8293 150.141 15.6377 149.98 15.5611C149.334 15.5994 149.253 16.1741 148.85 16.4806C148.406 16.7871 148.204 17.3234 147.841 17.6299C147.8 17.7065 147.8 17.6682 147.841 17.7832C147.397 18.3578 147.074 19.0091 146.468 19.4305C146.267 19.9286 145.782 20.1585 145.5 20.5799C145.056 20.8864 144.854 21.3844 144.531 21.8058C144.37 22.0357 144.289 22.189 144.168 22.4188C144.047 22.6104 143.805 22.7253 143.805 22.9935C143.32 23.4532 142.876 23.9896 142.352 24.4876C142.069 24.7175 141.827 24.9857 141.544 25.1772C141.06 25.4837 140.535 25.9052 140.051 26.1733C139.244 26.5564 138.154 26.4415 137.912 25.637C137.831 25.3305 137.912 24.9857 137.952 24.6792C138.114 23.3383 138.961 22.3039 139.769 21.576C140.132 21.0396 140.616 20.6182 141.02 20.0818C141.464 19.4688 141.908 18.7409 142.352 18.2046C142.311 18.2046 142.311 18.1663 142.311 18.128C142.675 17.7065 142.997 17.2851 143.32 16.8254C143.24 16.6721 143.361 16.5572 143.401 16.4423C143.119 16.4039 143.038 16.7104 142.876 16.902C142.634 17.1702 142.352 17.4 142.11 17.5533C142.271 17.3234 142.473 17.1319 142.594 16.9403C142.513 16.9403 142.553 16.7871 142.473 16.7871C141.988 17.1319 141.504 17.6682 141.1 18.013C141.504 17.4384 141.948 16.902 142.553 16.4806C142.473 16.4423 142.513 16.4423 142.513 16.3656C142.553 16.289 142.634 16.289 142.634 16.1741C142.392 16.1741 142.352 16.4039 142.15 16.4806C142.19 16.3656 142.11 16.3656 142.069 16.289C141.827 16.2507 141.706 16.5189 141.504 16.3656C141.464 16.4039 141.423 16.4806 141.343 16.5189C141.302 16.4806 141.302 16.4039 141.222 16.4423C141.1 16.5955 140.414 16.7104 140.334 16.7871C140.132 16.902 140.132 17.1702 140.091 17.2468C140.091 17.2468 140.051 17.3617 140.051 17.4767C139.93 17.515 139.97 17.5916 139.849 17.5533C139.486 18.0896 138.76 18.4728 138.517 19.0857C138.517 19.124 138.517 19.124 138.437 19.2007C138.396 19.239 137.872 20.0818 137.71 20.4266C137.71 20.4649 137.589 20.6565 137.508 20.7714C137.508 20.7331 137.508 20.6948 137.468 20.6948C137.226 21.0779 136.943 21.461 136.701 21.8058C136.661 21.8442 136.58 21.9208 136.58 21.9208C136.58 21.9591 135.975 22.687 135.773 23.0701C135.733 23.1467 135.41 23.6448 135.167 24.0279C135.167 24.0662 135.087 24.2578 134.885 24.5643C134.764 24.6792 134.32 25.1389 134.199 25.4071C134.158 25.4454 133.916 25.7902 133.876 25.9051C133.876 25.9435 133.513 26.5564 133.432 26.6331C133.19 26.7863 133.069 26.9779 132.907 27.1311C132.867 27.7058 132.019 28.0123 132.584 28.5486C133.23 28.0889 133.715 27.4376 134.36 26.9779C134.401 26.9396 134.522 26.8246 134.562 26.7863C134.885 27.3227 135.248 27.8207 135.773 28.1655C136.136 28.0889 136.338 28.4337 136.58 28.6253C136.701 28.7019 136.903 28.7402 137.064 28.8168C137.508 29.0467 137.831 29.2765 138.356 29.3915C139.042 29.5064 139.526 29.5447 140.091 29.3149C141.504 28.8168 142.997 27.9356 143.885 27.1311C144.047 27.4376 144.329 27.6675 144.652 27.8207C144.733 27.859 144.814 27.8973 144.894 27.9356C145.298 28.1655 145.984 28.3571 146.63 28.2805C146.63 28.1655 146.711 28.0506 146.751 28.0506C146.832 28.0123 146.347 27.7441 146.468 27.7824C146.468 27.7824 146.63 27.859 146.67 27.8207C146.67 27.7824 146.509 27.6292 146.549 27.6292C146.711 27.6675 146.993 27.859 147.033 27.859C147.195 27.8973 147.316 27.8973 147.397 27.859C147.8 27.974 148.083 27.7058 148.365 27.5142C148.043 27.3993 147.841 27.4376 147.477 27.2844C147.316 27.2077 146.832 26.9779 146.832 26.9012C146.105 26.7097 145.621 26.0967 145.782 25.1389C146.59 24.1428 147.518 23.2617 148.285 22.2656C148.688 21.9591 148.93 21.4993 149.173 21.0396C149.818 20.6182 149.899 19.6987 150.464 19.2007ZM135.531 25.7519C135.369 25.3305 135.773 24.7175 136.136 24.4493C135.934 24.7941 135.813 25.4454 136.015 25.8285C136.177 26.1733 136.58 26.5564 136.903 26.748C136.419 26.6331 135.692 26.2116 135.531 25.7519ZM138.154 21.5376C138.235 21.3844 138.316 21.2694 138.396 21.1162C138.558 20.848 138.639 20.5032 138.8 20.235C139.042 19.8519 139.325 19.3539 139.607 19.124C139.849 18.9325 140.172 18.8941 140.374 18.6643C140.414 18.6643 140.414 18.6643 140.455 18.7026C140.334 18.9708 140.091 19.124 139.97 19.4305C139.849 19.4305 139.849 19.5837 139.648 19.5454C138.881 20.3883 138.437 21.3844 137.791 22.3039C137.751 21.9974 138.033 21.8058 138.154 21.5376ZM143.845 24.7558C145.137 23.6448 146.307 22.4189 147.356 21.1163C147.437 21.078 147.437 21.1546 147.478 21.2312C146.711 22.0741 146.186 23.1085 145.217 23.7597C144.814 24.1429 144.612 24.6792 143.845 24.7558ZM145.5 23.9896C145.419 24.0279 145.258 23.8746 145.298 23.8363C146.307 22.9552 147.195 21.9591 148.002 20.8864C148.083 20.848 148.083 20.9247 148.083 20.963C147.518 21.6526 145.903 23.8746 145.5 23.9896Z" fill="#E2645A"/>
<path fill-rule="evenodd" clip-rule="evenodd" d="M134.401 20.8098C134.441 20.1202 134.32 19.6605 134.159 19.0858C133.755 17.5534 132.786 16.6722 131.414 16.0209C131.01 15.7527 130.688 15.6378 130.566 15.5995C130.324 15.4846 129.921 15.3696 129.598 15.3313C129.275 15.293 128.992 15.4846 128.629 15.4463C128.226 15.4079 127.903 15.0631 127.338 15.2547C125.804 15.7527 124.593 16.5956 123.544 17.5534C123.503 17.5917 123.544 17.7066 123.463 17.7449C123.18 18.0514 122.696 18.243 122.414 18.5878C122.333 18.7027 122.333 18.8176 122.252 18.9326C122.171 19.0475 122.01 19.1241 121.929 19.2774C121.727 19.5839 121.566 19.9287 121.324 20.2352C120.88 20.7332 120.557 21.3079 120.234 21.8826C120.032 22.2274 119.871 22.6105 119.75 22.9936C119.548 23.1851 119.265 23.4916 119.144 23.7981C119.023 24.1046 119.064 24.8325 119.064 25.0624C119.064 25.2156 118.983 25.3689 118.983 25.4838C118.983 25.5604 119.023 25.6754 119.064 25.7903C119.064 26.0202 118.983 26.2117 119.023 26.365C119.144 26.9013 119.427 27.3228 119.588 27.7442C119.709 27.7442 119.588 27.476 119.709 27.476C119.871 27.8974 120.113 28.2422 120.476 28.4721C120.718 28.6253 121.041 28.702 121.283 28.8552C121.405 28.9318 121.445 29.0468 121.526 29.1234C121.647 29.2 121.808 29.2 121.97 29.3149C122.131 29.4299 122.212 29.5831 122.373 29.6597C122.535 29.7364 123.261 29.9279 123.988 29.8513C124.633 29.813 125.239 29.4682 125.844 29.5065C125.764 29.5065 125.562 29.813 125.642 29.813C126.773 29.4299 127.903 29.0468 128.871 28.5104C128.669 28.702 128.266 28.7786 128.145 29.0468C129.517 28.5104 130.728 27.2844 131.777 26.0202C132.262 25.4455 132.746 24.7942 133.19 24.1812C133.755 23.3001 134.28 22.1507 134.401 20.8098ZM121.526 21.193C121.567 21.3462 120.961 22.2274 120.92 22.3806C120.839 22.1891 121.284 21.2313 121.526 21.193ZM124.028 29.0085C124.27 28.702 124.795 28.9702 125.159 28.9319C124.917 29.2001 124.391 29.1617 124.028 29.0085ZM124.835 28.6637C125.642 28.3955 126.329 28.0507 127.136 27.7825C126.974 28.089 126.571 28.2039 126.086 28.4338C125.642 28.6253 125.36 28.8935 124.835 28.6637ZM126.207 28.702C126.974 28.2806 127.62 27.7825 128.468 27.4377C128.468 27.3994 128.508 27.3994 128.548 27.3994C127.983 28.0507 127.015 28.3189 126.207 28.702ZM129.194 24.7942C128.468 26.0202 127.216 26.7481 125.683 27.2079C124.27 27.5527 122.696 27.0163 121.848 26.365L121.808 26.3267C121.445 25.867 120.88 25.752 120.961 24.8709C121.001 24.3728 121.283 23.8748 121.485 23.3767C121.606 23.1469 121.647 22.917 121.768 22.7254C121.97 22.3423 122.212 21.8826 122.535 21.5761C123.1 20.2735 123.826 19.0859 124.835 18.1664C124.916 18.1281 124.916 18.0898 125.037 18.0131C125.239 17.8599 125.36 17.745 125.602 17.5917C126.207 17.1703 126.974 16.9404 127.741 16.7489C128.225 16.7106 128.831 16.8638 129.356 16.9021C129.88 16.9021 130.324 17.2086 130.526 17.3618C130.889 17.8599 131.414 18.243 131.495 19.0092C131.495 19.1625 131.616 19.3157 131.656 19.469C131.696 19.7371 131.616 20.0819 131.575 20.3118C131.575 20.3884 131.535 20.58 131.495 20.6949C131.333 21.078 131.051 21.7293 130.889 21.9975C130.768 22.1508 130.607 22.4572 130.526 22.6488C130.445 22.8787 130.365 23.1085 130.284 23.2618C130.203 23.415 130.001 23.6449 129.961 23.6832C129.759 23.8748 129.598 24.2196 129.517 24.3345C129.517 24.3728 129.436 24.5261 129.396 24.5644C129.315 24.6027 129.275 24.7176 129.194 24.7942ZM130.97 24.4878C130.445 25.254 129.921 26.0202 129.396 26.7481C129.598 25.9819 130.082 24.9475 130.97 24.4878ZM132.463 22.917C131.979 23.8747 130.97 25.3689 130.163 26.25C130.889 25.139 131.737 23.6449 131.777 23.3001C131.858 23.1468 132.06 22.802 132.1 22.6871C132.181 22.3423 132.423 22.1507 132.544 21.8442C132.544 22.189 132.584 22.6105 132.463 22.917Z" fill="#E2645A"/>
<path fill-rule="evenodd" clip-rule="evenodd" d="M121.687 15.5611C121.687 15.4079 121.727 15.3312 121.768 15.2163C121.727 15.1397 121.566 15.1014 121.606 14.9481C121.364 14.9864 121.162 15.2163 121.001 15.2929C120.961 15.3312 120.92 15.3312 120.92 15.3695C120.88 15.4079 120.799 15.4079 120.759 15.4462C120.476 15.7527 120.315 16.1358 120.073 16.5189C119.669 17.0936 119.346 17.6299 119.023 18.2429C118.862 18.5111 118.781 18.8559 118.499 19.0474C118.458 18.7793 118.62 18.6643 118.7 18.4728C118.983 17.8981 119.265 17.2468 119.629 16.6721C120.073 15.9442 120.638 15.2163 121.001 14.6033C121.041 14.4884 120.92 14.4118 120.92 14.2585C121.162 13.9137 120.759 13.6072 120.638 13.3774C120.517 13.4157 120.436 13.6072 120.315 13.5689C120.436 13.5306 120.517 13.3774 120.436 13.2241C120.396 13.339 120.315 13.2241 120.355 13.2241C120.194 13.1858 120.113 13.454 119.952 13.5689C119.871 13.6072 119.83 13.5306 119.75 13.5306C119.306 13.8371 119.104 14.2585 118.781 14.7183C118.579 15.0247 118.378 15.2929 118.176 15.5611C117.974 15.8293 117.853 16.2124 117.691 16.5189C117.49 16.8254 117.288 17.1319 117.167 17.4384C116.925 18.0896 116.884 18.7793 116.521 19.3922C116.521 19.4305 116.4 19.8137 116.238 19.9669C116.359 19.5072 116.602 18.8559 116.803 18.2046C116.602 18.3195 116.602 18.5111 116.521 18.6643C116.238 19.3539 115.875 20.0435 115.593 20.7331C115.35 21.3078 115.028 21.9974 114.705 22.4954C114.382 23.3383 113.776 23.8747 113.534 24.7558C113.615 24.7941 113.736 24.4876 113.897 24.3727C113.938 24.4493 113.857 24.6409 113.817 24.7175C113.696 24.9091 113.454 25.3305 113.292 25.6753C113.211 25.8285 113.09 25.9435 113.05 26.0967C112.929 26.3649 112.929 26.6331 112.848 26.8629C112.767 27.0928 112.606 27.2844 112.445 27.4759C112.122 27.8973 111.96 28.3571 111.637 28.7402C111.435 28.9701 111.314 29.2382 111.274 29.3149C111.193 29.5447 110.992 29.8129 110.951 29.8895C110.911 29.9278 110.507 30.6558 110.063 30.809C110.023 30.8473 109.983 30.8856 109.902 30.9239C109.377 31.6902 109.054 32.3798 108.247 32.8012C108.086 32.8778 108.045 32.9544 107.964 32.9927C107.601 33.4525 107.198 33.759 106.512 33.9122C106.875 33.759 107.319 33.3759 107.48 33.1843C107.399 33.1843 107.157 33.2992 106.996 33.3759C106.592 33.6057 106.713 33.5674 106.431 33.6824C105.906 34.1421 105.301 34.4869 104.574 34.6784C104.534 34.6784 104.493 34.6784 104.453 34.7168C104.211 34.7934 104.171 34.6784 103.969 34.6018C103.888 34.5635 103.807 34.4486 103.767 34.372C103.444 33.7973 103.162 33.3759 103.404 32.5713C103.606 31.8434 104.372 30.9622 104.937 30.6558C105.059 30.3493 105.381 29.9662 105.139 29.5447C105.139 29.5064 105.099 29.4298 105.099 29.3915C105.059 28.8168 104.978 28.5486 104.736 28.1655C104.816 28.0506 104.937 28.0123 104.937 27.8207C104.857 27.7441 104.816 27.5909 104.776 27.4759C104.776 27.3993 104.736 27.3227 104.574 27.2844C104.493 27.2461 104.534 27.0928 104.493 27.0928C104.171 27.0545 104.292 27.361 104.09 27.4376C104.009 27.3993 104.05 27.361 104.009 27.361C103.807 27.4759 103.484 27.4759 103.404 27.5525C102.919 28.2421 102.556 29.0467 101.87 29.583C101.87 29.7363 101.83 29.7363 101.749 29.8512C101.668 29.8895 101.668 29.9662 101.588 29.9662C101.265 30.4259 100.942 31.0006 100.74 31.5369C100.659 31.7668 100.7 31.9583 100.619 32.2265C100.578 32.3415 100.457 32.4564 100.417 32.5713C100.296 32.9927 100.175 33.6057 100.215 34.0655C100.256 34.6018 100.336 35.2148 100.578 35.7129C100.619 35.7895 100.659 35.8278 100.659 35.8661C100.821 36.0577 101.305 36.594 101.668 36.7089C101.709 36.7473 101.709 36.8239 101.749 36.8622C102.435 37.3602 103.404 37.6667 104.413 37.7434C104.453 37.7434 104.453 37.8583 104.534 37.82C106.431 37.5518 107.682 36.7473 108.933 35.7895C110.346 34.7551 111.516 33.644 112.525 32.3031C112.929 31.7668 113.332 31.2687 113.655 30.6941C113.978 30.3876 114.18 30.0045 114.341 29.583C115.754 27.7824 116.44 25.4071 117.449 23.2617C117.449 23.2234 117.53 23.1084 117.53 23.1084C117.853 21.9591 118.499 21.0396 119.023 20.0818C119.952 18.5877 120.718 16.9403 121.687 15.5611ZM109.377 34.2187C109.377 34.2953 107.561 35.6362 107.44 35.6745C106.915 36.0193 106.512 36.1343 106.39 36.1343C106.269 36.1343 105.059 35.981 105.22 35.8661C105.26 35.8661 106.229 35.9427 106.754 35.7128C107.763 35.3297 108.852 34.4869 109.296 34.1038C109.377 34.1421 109.377 34.1804 109.377 34.2187ZM109.74 33.9888C109.619 33.759 110.185 33.3759 110.306 33.3759C110.185 33.5291 109.942 33.7207 109.74 33.9888Z" fill="#E2645A"/>
<path fill-rule="evenodd" clip-rule="evenodd" d="M122.615 11.9599C122.575 12.0365 123.019 12.1131 123.1 12.1898C123.18 12.2664 123.14 12.3813 123.221 12.4579C123.746 12.841 124.432 12.1898 124.835 12.0365C125.198 11.73 125.562 11.3469 125.885 10.9638C125.925 10.9255 126.006 10.7339 126.006 10.6956C126.046 10.3125 125.642 9.92938 125.642 9.58458C125.642 9.46965 125.764 9.35472 125.804 9.23978C126.006 8.6268 126.046 8.09044 125.683 7.66902C124.714 7.40084 123.665 8.51187 123.059 8.9716C122.938 9.04823 122.777 9.12485 122.696 9.16316C122.494 9.35472 122.494 9.39303 122.252 9.54627C122.091 9.69952 121.606 9.9677 121.647 10.2359C121.768 10.8872 121.849 11.0021 122.131 11.5001C122.293 11.73 122.454 11.8066 122.615 11.9599Z" fill="#E2645A"/>
<path fill-rule="evenodd" clip-rule="evenodd" d="M0 27.859L3.18848 6.48132H62.0342L58.8861 27.859H28.1717L24.741 8.01378L12.31 27.859H0ZM9.76717 12.5728H16.9514L17.5971 8.93326H5.65039L3.26912 25.8285H7.87023L8.87924 18.9325H14.8122L15.2966 15.5228H9.36357L9.76717 12.5728ZM35.5172 13.9137C35.719 14.1436 36.2033 14.3734 37.0106 14.565C38.9882 15.1397 40.4008 15.676 41.208 16.1741C42.0153 16.7104 42.5803 17.3234 42.9032 18.0513C43.2261 18.7792 43.3068 19.5838 43.1857 20.4649C43.0646 21.4993 42.661 22.4571 42.0153 23.3C41.3695 24.1428 40.5219 24.7941 39.5129 25.2155C38.5039 25.637 37.2527 25.7902 35.7997 25.7519C33.2167 25.637 31.5215 25.024 30.6739 23.9513C30.1493 23.3 29.8264 22.5338 29.6246 21.6526L33.9835 19.6987C33.9835 20.4649 34.1046 21.0779 34.3468 21.4993C34.7504 22.189 35.3961 22.5338 36.2841 22.5721C36.9702 22.6104 37.4949 22.4571 37.8985 22.1506C38.3021 21.8441 38.5443 21.461 38.5846 21.0013C38.625 20.5799 38.5039 20.1968 38.2214 19.852C37.9388 19.5072 37.172 19.1624 35.9612 18.8176C33.9835 18.2429 32.6113 17.515 31.8444 16.6721C31.0775 15.8293 30.7547 14.7566 30.9161 13.4923C31.0372 12.6494 31.3601 11.8832 31.8848 11.1553C32.4498 10.4274 33.1763 9.89102 34.145 9.50791C35.1136 9.12479 36.3648 8.97155 37.9388 9.00986C39.8762 9.08648 41.2888 9.54622 42.2171 10.3508C42.8225 10.8871 43.2261 11.6533 43.3875 12.5728L39.1093 14.2202C39.0689 13.4923 38.9075 12.9176 38.5846 12.5728C38.2617 12.228 37.737 12.0365 37.0913 11.9981C36.5666 11.9598 36.1226 12.0748 35.7997 12.3046C35.4769 12.5345 35.3154 12.841 35.275 13.1858C35.2347 13.454 35.3154 13.7222 35.5172 13.9137ZM53.841 12.5729H58.3614L58.8861 8.97159H44.7599L44.1949 12.5729H49.1188L47.2219 25.7903H51.9441L53.841 12.5729Z" fill="#E2645A"/>
<path d="M11.9062 34.9849L22.844 17.515L25.9921 34.9849H11.9062Z" fill="#E2645A"/>
<path d="M33.8624 31.0772C32.9745 31.0772 32.3287 31.4986 32.2076 32.1499C32.0865 32.8778 32.6112 33.1077 33.0955 33.261L33.5395 33.3759C33.9835 33.4908 34.0642 33.6058 34.0238 33.759C33.9835 34.0655 33.5395 34.1421 33.2973 34.1421C33.0552 34.1421 32.8534 34.0655 32.7323 33.9506C32.6112 33.7973 32.6112 33.6058 32.6112 33.6058V33.5291H31.6829V33.6058C31.6829 33.6441 31.6022 34.1038 31.9251 34.4869C32.1672 34.7551 32.5709 34.9083 33.0955 34.9083C33.822 34.9083 34.71 34.6402 34.8714 33.8356C34.9925 33.0694 34.3871 32.8012 33.9028 32.6863L33.4588 32.5714C33.0955 32.4564 33.0552 32.3415 33.0552 32.2265C33.0955 31.9967 33.2973 31.8817 33.6606 31.8817C33.8624 31.8817 34.0238 31.9201 34.1046 32.035C34.2256 32.1882 34.1853 32.3798 34.1853 32.3798V32.4564H35.1136V32.3798C35.1136 32.3415 35.1943 31.8817 34.8714 31.4986C34.7503 31.1921 34.3871 31.0772 33.8624 31.0772Z" fill="#E2645A"/>
<path d="M40.8447 32.5331H39.6339L39.8761 31.1539H38.9881L38.302 34.7934H39.2303L39.5128 33.261H40.6833L40.4411 34.7934H41.329L41.9748 31.1539H41.0869L40.8447 32.5331Z" fill="#E2645A"/>
<path fill-rule="evenodd" clip-rule="evenodd" d="M45.2844 32.4564C45.4458 31.6136 46.1319 31.0772 47.1409 31.0772C47.6253 31.0772 48.0289 31.2305 48.271 31.4986C48.4728 31.7285 48.5536 32.0733 48.4728 32.4947L48.3114 33.4908C48.15 34.3337 47.4638 34.87 46.4548 34.87C45.9705 34.87 45.5669 34.7168 45.3247 34.4486C45.1229 34.2187 45.0422 33.8739 45.1229 33.4525L45.2844 32.4564ZM46.173 32.4947L46.0116 33.4908C45.9712 33.7207 46.0116 33.8739 46.0923 33.9889C46.173 34.1038 46.3345 34.1421 46.5766 34.1421C47.0609 34.1421 47.3435 33.9123 47.4242 33.4525L47.5856 32.4564C47.626 32.2266 47.5856 32.0733 47.5049 31.9584C47.4242 31.8434 47.2627 31.8051 47.0206 31.8051C46.5363 31.8051 46.2537 32.035 46.173 32.4947Z" fill="#E2645A"/>
<path fill-rule="evenodd" clip-rule="evenodd" d="M54.1233 31.1539C54.6076 31.1539 55.0112 31.2688 55.213 31.4987C55.3745 31.6902 55.4148 31.9584 55.3745 32.2649C55.213 32.9545 54.648 33.3376 53.7197 33.3376H52.8318L52.5896 34.7934H51.7017L52.3474 31.1539H54.1233ZM53.9629 31.8818H53.1153L52.9942 32.6097H53.8014C54.3665 32.6097 54.4472 32.4181 54.4876 32.2266C54.5279 32.1116 54.4876 32.035 54.4472 31.9967C54.3665 31.9201 54.205 31.8818 53.9629 31.8818Z" fill="#E2645A"/>
<path d="M83.9503 29.1233C83.7484 29.1233 83.5464 28.9701 83.5464 28.7402V9.12481C83.5464 8.93326 83.708 8.7417 83.9503 8.7417C84.1927 8.7417 84.3542 8.89494 84.3542 9.12481V28.7785C84.3542 28.9701 84.1523 29.1233 83.9503 29.1233Z" fill="#E2645A"/>
<path d="M94.2823 19.2773H73.5773C73.3755 19.2773 73.1737 19.1241 73.1737 18.8942C73.1737 18.7027 73.3351 18.5111 73.5773 18.5111H94.2823C94.4841 18.5111 94.6859 18.6644 94.6859 18.8942C94.6455 19.0858 94.4841 19.2773 94.2823 19.2773Z" fill="#E2645A"/>
</svg>
