<svg viewBox="0 0 60 60" fill="none" xmlns="http://www.w3.org/2000/svg">
    <circle cx="30" cy="30" r="30" fill="url(#paint0_linear)"/>
    <path d="M25.1033 19.8032C25.1033 17.1945 27.2179 15.0799 29.8266 15.0799C32.4351 15.0799 34.55 17.1945 34.55 19.8032V22.7642H35.6298V19.8032C35.6298 16.5982 33.0317 14 29.8266 14C26.6216 14 24.0234 16.5982 24.0234 19.8032V22.7642H25.1033V19.8032Z" fill="white"/>
    <path d="M40.4408 33.7026L38.6628 23.6639C38.6622 23.6606 38.6616 23.6569 38.661 23.6536C38.5827 23.1405 38.1404 22.7621 37.6212 22.7642H35.6299V25.698C35.6299 25.9963 35.3879 26.238 35.0899 26.238C34.7916 26.238 34.55 25.9963 34.55 25.698V22.7642H25.1033V25.698C25.1033 25.9963 24.8617 26.238 24.5634 26.238C24.2651 26.238 24.0234 25.9963 24.0234 25.698V22.7642H22.0321C21.5129 22.7621 21.0706 23.1405 20.9923 23.6536C20.9917 23.6569 20.9911 23.6606 20.9905 23.6639L18.0253 40.4031C18.0518 41.8451 19.2275 43.001 20.6699 43.0025H34.9435C33.9431 41.0518 34.0127 38.7242 35.1285 36.8368C36.2439 34.9497 38.2494 33.7661 40.4408 33.7023V33.7026Z" fill="white"/>
    <path fill-rule="evenodd" clip-rule="evenodd" d="M40.6256 34.7776C40.7651 34.7776 40.9064 34.7834 41.0453 34.7939C43.9198 35.0199 46.085 37.5042 45.9162 40.3826C45.7472 43.261 43.3063 45.4753 40.4252 45.3635C37.5441 45.2517 35.2818 42.8554 35.3364 39.9725C35.3909 37.0896 37.742 34.7804 40.6256 34.7776ZM40.2263 42.5071L44.1108 38.7968C44.3265 38.591 44.3344 38.249 44.1286 38.0336C43.9225 37.8179 43.5808 37.81 43.3651 38.0158L39.862 41.3618L38.0319 39.5314C37.821 39.3205 37.479 39.3205 37.2681 39.5314C37.0572 39.7423 37.0572 40.0843 37.2681 40.2949L39.4715 42.4984C39.6791 42.706 40.0142 42.7096 40.2263 42.5071Z" fill="white"/>
    <defs>
        <linearGradient id="paint0_linear" x1="42.733" y1="-49.5189" x2="-32.9422" y2="16.3656" gradientUnits="userSpaceOnUse">
            <stop stop-color="#F093FB"/>
            <stop offset="1" stop-color="#F5576C"/>
        </linearGradient>
    </defs>
</svg>